<svg xmlns="http://www.w3.org/2000/svg" viewBox="0 0 200 200" width="200" height="200">
  <defs>
    <linearGradient id="g1" x1="0%" y1="0%" x2="100%" y2="100%">
      <stop offset="0%" stop-color="#b89447"/>
      <stop offset="25%" stop-color="#d4af37"/>
      <stop offset="50%" stop-color="#f5d76e"/>
      <stop offset="75%" stop-color="#c9a84c"/>
      <stop offset="100%" stop-color="#8a6914"/>
    </linearGradient>
    <linearGradient id="g2" x1="100%" y1="0%" x2="0%" y2="100%">
      <stop offset="0%" stop-color="#c9a84c"/>
      <stop offset="30%" stop-color="#edd9a0"/>
      <stop offset="60%" stop-color="#d4af37"/>
      <stop offset="100%" stop-color="#996515"/>
    </linearGradient>
    <linearGradient id="g3" x1="0%" y1="100%" x2="100%" y2="0%">
      <stop offset="0%" stop-color="#8a6914"/>
      <stop offset="50%" stop-color="#e8d5a3"/>
      <stop offset="100%" stop-color="#b89447"/>
    </linearGradient>
    <filter id="texture" x="-10%" y="-10%" width="120%" height="120%">
      <feTurbulence type="fractalNoise" baseFrequency="0.5" numOctaves="5" result="noise"/>
      <feColorMatrix type="saturate" values="0" in="noise" result="grayNoise"/>
      <feComponentTransfer in="grayNoise" result="fadedNoise">
        <feFuncA type="linear" slope="0.12"/>
      </feComponentTransfer>
      <feBlend in="SourceGraphic" in2="fadedNoise" mode="multiply"/>
    </filter>
    <filter id="shadow" x="-20%" y="-20%" width="140%" height="140%">
      <feDropShadow dx="0" dy="2" stdDeviation="4" flood-color="#000" flood-opacity="0.15"/>
    </filter>
  </defs>
  <g filter="url(#shadow)">
    <g filter="url(#texture)">
      <path d="M 60 20 C 120 15, 180 40, 175 85 C 170 130, 120 150, 40 180 C 25 186, 28 195, 42 190 C 120 160, 180 135, 182 85 C 185 35, 125 25, 60 32 Z" fill="url(#g3)" opacity="0.6"/>
      <path d="M 155 15 C 185 45, 190 95, 145 120 C 100 145, 55 155, 25 175 C 15 182, 22 192, 32 185 C 55 170, 100 155, 140 130 C 180 105, 178 55, 148 25 Z" fill="url(#g2)"/>
      <path d="M 100 55 C 135 55, 160 75, 155 100 C 150 125, 120 135, 85 140 C 70 142, 65 135, 78 130 C 105 122, 135 110, 138 90 C 140 70, 120 62, 100 65 Z" fill="url(#g1)"/>
      <path d="M 115 85 C 130 88, 138 100, 128 110 C 118 120, 100 118, 95 108 C 90 98, 100 88, 115 85 Z" fill="url(#g1)" opacity="0.8"/>
    </g>
  </g>
</svg>
